<?xml version="1.0" encoding="UTF-8" standalone="no"?>
<!-- Created with Inkscape (http://www.inkscape.org/) -->

<svg
   xmlns:dc="http://purl.org/dc/elements/1.1/"
   xmlns:cc="http://creativecommons.org/ns#"
   xmlns:rdf="http://www.w3.org/1999/02/22-rdf-syntax-ns#"
   xmlns:svg="http://www.w3.org/2000/svg"
   xmlns="http://www.w3.org/2000/svg"
   xmlns:sodipodi="http://sodipodi.sourceforge.net/DTD/sodipodi-0.dtd"
   xmlns:inkscape="http://www.inkscape.org/namespaces/inkscape"
   width="111.774"
   height="50.77314"
   viewBox="0 0 29.573537 13.433727"
   version="1.1"
   id="svg5487"
   inkscape:version="0.92.0 r15299"
   sodipodi:docname="qiwi.svg">
  <defs
     id="defs5481" />
  <sodipodi:namedview
     id="base"
     pagecolor="#ffffff"
     bordercolor="#666666"
     borderopacity="1.0"
     inkscape:pageopacity="0.0"
     inkscape:pageshadow="2"
     inkscape:zoom="7.2399661"
     inkscape:cx="55.386999"
     inkscape:cy="24.886572"
     inkscape:document-units="mm"
     inkscape:current-layer="layer1"
     showgrid="false"
     fit-margin-top="0"
     fit-margin-left="0"
     fit-margin-right="0"
     fit-margin-bottom="0"
     units="px"
     inkscape:window-width="1280"
     inkscape:window-height="744"
     inkscape:window-x="-4"
     inkscape:window-y="-4"
     inkscape:window-maximized="1" />
  <metadata
     id="metadata5484">
    <rdf:RDF>
      <cc:Work
         rdf:about="">
        <dc:format>image/svg+xml</dc:format>
        <dc:type
           rdf:resource="http://purl.org/dc/dcmitype/StillImage" />
        <dc:title></dc:title>
      </cc:Work>
    </rdf:RDF>
  </metadata>
  <g
     inkscape:label="Layer 1"
     inkscape:groupmode="layer"
     id="layer1"
     transform="translate(-48.845523,-338.5318)">
    <g
       id="g5493"
       transform="matrix(0.26458333,0,0,0.26458333,48.943684,337.05093)"
       style="fill:none">
      <path
         id="path5489"
         d="m 54.406,34.313 h 1.737 v 3.893 h 1.255 l 2.252,-3.893 h 1.899 l -2.703,4.569 v 0.032 L 61.71,43.9 H 59.747 L 57.43,39.717 H 56.176 V 43.9 h -1.738 v -9.588 h -0.032 z m 11.197,2.542 c 2.09,0 3.796,1.512 3.796,3.603 0,2.124 -1.673,3.604 -3.764,3.604 -2.092,0 -3.765,-1.48 -3.765,-3.604 -0.032,-2.123 1.641,-3.603 3.733,-3.603 z m 5.147,0.16 h 1.641 v 5.406 h 2.156 v -5.405 h 1.64 v 5.405 h 2.156 v -5.405 h 1.641 V 43.9 h -9.17 v -6.885 z m 14.093,-0.16 c 1.962,0 3.056,1.448 3.056,3.25 a 4.8,4.8 0 0 1 -0.064,0.675 h -4.73 c 0.097,1.19 1.03,1.834 2.06,1.834 0.707,0 1.415,-0.322 1.962,-0.74 l 0.676,1.223 c -0.708,0.61 -1.77,0.997 -2.767,0.997 -2.285,0 -3.7,-1.641 -3.7,-3.604 0,-2.155 1.447,-3.635 3.507,-3.635 z m 3.86,5.598 c 0.837,-0.129 1.448,-0.836 1.448,-3.282 v -2.155 h 5.02 V 43.9 h -1.706 v -5.502 h -1.673 v 0.772 c 0,2.992 -0.804,4.73 -3.089,4.794 v -1.512 z m 11.358,-5.598 c 1.962,0 3.056,1.448 3.056,3.25 a 4.8,4.8 0 0 1 -0.064,0.675 h -4.73 c 0.097,1.19 1.03,1.834 2.06,1.834 0.707,0 1.415,-0.322 1.962,-0.74 l 0.676,1.223 c -0.708,0.61 -1.77,0.997 -2.767,0.997 -2.284,0 -3.7,-1.641 -3.7,-3.604 0,-2.155 1.448,-3.635 3.507,-3.635 z m 4.472,0.16 h 1.705 v 2.639 h 0.837 l 1.673,-2.638 h 1.898 l -2.188,3.281 v 0.033 l 2.445,3.57 h -1.994 l -1.802,-2.798 h -0.9 V 43.9 H 104.5 v -6.885 h 0.032 z m -38.93,5.567 c 1.126,0 2.059,-0.869 2.059,-2.156 0,-1.255 -0.933,-2.156 -2.06,-2.156 -1.125,0 -2.026,0.87 -2.026,2.156 0,1.287 0.9,2.156 2.027,2.156 z M 86.162,39.59 c 0,-0.901 -0.612,-1.448 -1.384,-1.448 -0.868,0 -1.512,0.579 -1.673,1.448 z m 15.218,0 c 0,-0.901 -0.611,-1.448 -1.383,-1.448 -0.87,0 -1.513,0.579 -1.674,1.448 z"
         inkscape:connector-curvature="0"
         style="fill:#2d3540" />
      <path
         id="path5491"
         d="M 78.44,13.432 V 29.68 a 0.44,0.44 0 0 1 -0.45,0.45 h -3.314 a 0.44,0.44 0 0 1 -0.45,-0.45 V 13.432 a 0.44,0.44 0 0 1 0.45,-0.45 h 3.314 a 0.44,0.44 0 0 1 0.45,0.45 z m 25.868,-0.45 c 0.129,0 0.29,0.064 0.45,0.193 0.097,0.096 0.097,0.257 0.065,0.386 l -5.47,16.28 a 0.458,0.458 0 0 1 -0.418,0.29 h -2.96 c -0.193,0 -0.354,-0.097 -0.418,-0.29 L 92.37,20.35 89.185,29.84 a 0.458,0.458 0 0 1 -0.418,0.29 h -2.96 c -0.193,0 -0.354,-0.096 -0.418,-0.29 l -5.47,-16.28 c -0.032,-0.128 -0.032,-0.257 0.064,-0.385 0.065,-0.129 0.226,-0.193 0.354,-0.193 h 3.7 c 0.193,0 0.354,0.128 0.419,0.321 l 2.927,9.62 3.218,-9.62 a 0.458,0.458 0 0 1 0.418,-0.29 h 2.606 c 0.193,0 0.354,0.097 0.418,0.29 l 3.218,9.62 2.928,-9.62 a 0.444,0.444 0 0 1 0.418,-0.321 h 3.7 z m 5.598,0 c 0.225,0 0.418,0.193 0.45,0.45 V 29.68 a 0.44,0.44 0 0 1 -0.45,0.45 h -3.314 a 0.44,0.44 0 0 1 -0.45,-0.45 V 13.432 a 0.44,0.44 0 0 1 0.45,-0.45 z m -37.611,16.57 c 0.193,0.225 0.032,0.546 -0.258,0.546 H 67.983 A 0.519,0.519 0 0 1 67.565,29.905 L 66.89,29.069 c -1.416,0.9 -3.09,1.448 -4.859,1.448 -4.954,0 -8.976,-4.022 -8.976,-8.977 0,-4.955 4.022,-8.977 8.976,-8.977 4.955,0 8.977,4.022 8.977,8.977 0,1.77 -0.515,3.443 -1.416,4.858 l 2.703,3.153 z m -33.88,7.882 c 0.837,0.322 1.159,1.576 1.223,2.123 0.129,0.998 -0.16,1.384 -0.482,1.384 -0.322,0 -0.773,-0.386 -1.255,-1.158 -0.483,-0.773 -0.676,-1.641 -0.418,-2.092 0.16,-0.29 0.514,-0.418 0.933,-0.257 z m -4.89,3.636 c 0.515,0 1.094,0.225 1.609,0.675 0.997,0.837 1.287,1.802 0.772,2.51 -0.29,0.354 -0.772,0.579 -1.319,0.579 -0.547,0 -1.126,-0.193 -1.512,-0.547 -0.901,-0.772 -1.158,-2.06 -0.58,-2.767 0.226,-0.29 0.58,-0.45 1.03,-0.45 z m -11.26,9.298 c -12.227,0 -22.136,-9.91 -22.136,-22.136 0,-12.226 9.91,-22.135 22.135,-22.135 12.226,0 22.136,9.91 22.136,22.135 0,4.15 -1.158,8.044 -3.12,11.358 -0.065,0.096 -0.226,0.064 -0.258,-0.065 -0.772,-5.437 -4.086,-8.43 -8.912,-9.33 -0.419,-0.065 -0.483,-0.322 0.064,-0.386 1.48,-0.129 3.571,-0.097 4.665,0.096 0.064,-0.547 0.097,-1.126 0.097,-1.705 0,-8.076 -6.564,-14.64 -14.64,-14.64 -8.075,0 -14.639,6.564 -14.639,14.64 0,8.076 6.564,14.64 14.64,14.64 h 0.675 a 19.749,19.749 0 0 1 -0.29,-3.958 c 0.033,-0.901 0.226,-1.03 0.612,-0.322 2.027,3.507 4.923,6.66 10.585,7.915 4.633,1.03 9.266,2.22 14.253,8.558 0.45,0.547 -0.225,1.126 -0.74,0.676 -5.083,-4.505 -9.716,-5.985 -13.931,-5.985 -4.73,0.033 -7.947,0.644 -11.197,0.644 z m 41.986,-24.42 -1.77,-2.156 c -0.192,-0.225 -0.031,-0.579 0.258,-0.579 h 3.732 c 0.193,-0.515 0.29,-1.094 0.29,-1.673 0,-2.67 -1.995,-4.987 -4.73,-4.987 -2.734,0 -4.73,2.317 -4.73,4.987 0,2.67 1.996,4.955 4.73,4.955 0.772,0.032 1.545,-0.193 2.22,-0.547 z"
         inkscape:connector-curvature="0"
         style="fill:#ff8c00" />
    </g>
  </g>
</svg>
